<?xml version="1.0" encoding="UTF-8"?><svg id="Layer_1" xmlns="http://www.w3.org/2000/svg" viewBox="0 0 615.46 91.44"><defs><style>.cls-1{fill:#8789b5;}.cls-1,.cls-2,.cls-3,.cls-4,.cls-5{stroke-width:0px;}.cls-2{fill:#a7bd67;}.cls-3{fill:#dcbb6e;}.cls-6{stroke-width:4px;}.cls-6,.cls-7{fill:#000;stroke:#000;stroke-miterlimit:10;}.cls-7{stroke-width:2px;}.cls-4{fill:#6d9ad7;}.cls-5{fill:#fff;}</style></defs><path class="cls-5" d="M523.15,88.09c.05-.97.11-1.71.11-2.44,0-24.39,0-48.79,0-73.18,0-5.33-2.97-8.37-8.35-8.39-11.41-.05-22.83-.16-34.24.02-22.84.37-39.65,15.41-41.15,37.92-.98,14.76-.33,29.62-.43,44.44-.01,1.51.8,1.74,2.07,1.72,3.66-.05,7.33-.13,10.99.03,1.94.08,2.42-.68,2.4-2.45-.07-4.91.12-9.83-.08-14.73-.11-2.66.56-3.54,3.4-3.52,15.58.15,31.16.14,46.73,0,2.71-.02,3.57.61,3.46,3.41-.23,5.7-.07,11.41-.07,17.16h15.14ZM203.17,89.4c4.59,0,7.92.06,11.25,0,18.1-.36,31.06-10.21,34.64-26.84,1.86-8.68.99-17.59.73-26.38-.54-18.37-13.79-32.01-32.15-33.03-7.72-.43-15.5-.48-23.23-.18-18.65.73-31.3,10.78-34.61,27.55-1.64,8.29-.66,16.77-.67,25.16-.02,14.33,9.03,26.73,22.56,31.62,7.42,2.69,15.11,1.93,21.47,2.11ZM588.31,19.37c-1.09,1.33-1.58,1.99-2.12,2.59-10.29,11.47-20.59,22.92-30.88,34.38-5.51,6.13-11.02,12.27-16.53,18.4-2.32,2.58-3.12,5.53-1.73,8.75,1.25,2.89,3.57,4.64,6.81,4.64,22.33.04,44.65,0,66.98.05,1.55,0,2.04-.53,2.01-2.01-.07-3.41-.15-6.83.03-10.24.13-2.34-.5-3.11-3-3.09-14.91.13-29.82.07-44.74.05-.95,0-1.98.3-3.13-.53.65-.78,1.24-1.54,1.88-2.25,15.63-17.42,31.24-34.85,46.9-52.23,2.46-2.73,3.44-5.72,2.03-9.16-1.27-3.09-3.86-4.61-7.11-4.61-22.24-.06-44.49-.03-66.73-.05-1.47,0-2.08.48-2.04,2.03.09,3.24.21,6.51-.03,9.74-.21,2.79.57,3.67,3.51,3.63,14.74-.16,29.49-.07,44.24-.07.96,0,1.93,0,3.67,0ZM342.14,72.9c-1.29,0-2.29,0-3.28,0-18.33,0-36.65-.06-54.98.06-2.74.02-3.65-.53-3.63-3.51.15-20.9.05-41.8.12-62.69,0-1.99-.43-2.85-2.6-2.75-3.49.16-7,.09-10.49.02-1.62-.03-2.39.36-2.39,2.21.05,24.56,0,49.12.07,73.68.01,5.47,2.99,8.22,8.46,8.22,22.08,0,44.15,0,66.23,0,.81,0,1.61-.08,2.51-.13v-15.12ZM353.27,48.97c0,12.15.05,24.31-.04,36.46-.02,2.19.61,2.9,2.83,2.77,3.32-.19,6.67-.2,9.99,0,2.27.14,2.75-.64,2.75-2.8-.08-20.81.02-41.62-.12-62.43-.02-3.02.86-3.7,3.74-3.68,18.15.12,36.31.02,54.47.11,2.31.01,3.04-.66,2.9-2.95-.19-3.07-.22-6.17,0-9.23.18-2.54-.64-3.24-3.18-3.23-21.24.1-42.47.05-63.71.06-6.92,0-9.58,2.6-9.6,9.46-.02,11.82,0,23.64,0,35.46ZM398.62,53.84c7.33,0,14.66-.04,21.99.03,1.72.02,2.37-.54,2.32-2.3-.1-3.66-.07-7.33,0-10.99.03-1.52-.34-2.25-2.08-2.24-14.74.05-29.49.06-44.23,0-1.76,0-2.08.76-2.05,2.26.07,3.58.12,7.16-.02,10.74-.08,2.01.66,2.56,2.59,2.54,7.16-.09,14.33-.04,21.49-.04Z"/><path class="cls-6" d="M523.15,87.45h-15.14c0-5.76-.16-11.47.07-17.16.11-2.8-.75-3.44-3.46-3.41-15.58.13-31.16.14-46.73,0-2.85-.03-3.51.86-3.4,3.52.2,4.9,0,9.82.08,14.73.03,1.77-.45,2.53-2.4,2.45-3.66-.15-7.33-.08-10.99-.03-1.27.02-2.08-.2-2.07-1.72.1-14.82-.56-29.68.43-44.44,1.5-22.51,18.3-37.55,41.15-37.92,11.41-.19,22.82-.07,34.24-.02,5.38.02,8.35,3.06,8.35,8.39,0,24.39,0,48.79,0,73.18,0,.73-.06,1.47-.11,2.44ZM481.29,51.7c8,0,15.99-.08,23.99.05,2.25.04,2.8-.71,2.77-2.85-.11-9.16-.1-18.31,0-27.47.02-2.02-.52-2.77-2.65-2.74-7.66.11-15.33-.07-22.99.08-7.14.14-13.87,1.85-19.45,6.6-7.28,6.2-8.63,14.58-8.47,23.53.04,2.12.57,2.89,2.82,2.86,7.99-.13,15.99-.05,23.99-.05Z"/><path class="cls-6" d="M203.17,89.42c-6.37-.17-14.05.58-21.47-2.11-13.52-4.9-22.57-17.3-22.56-31.62.01-8.39-.97-16.87.67-25.16,3.31-16.77,15.96-26.82,34.61-27.55,7.73-.3,15.5-.25,23.23.18,18.36,1.02,31.61,14.66,32.15,33.03.26,8.8,1.13,17.71-.73,26.38-3.57,16.63-16.53,26.48-34.64,26.84-3.33.07-6.66,0-11.25,0ZM204.63,73.84s0,.03,0,.05c4,0,8,.1,11.99-.02,8.04-.23,15.19-5.61,16.97-13.4,1.99-8.68,1.47-17.59.49-26.32-.99-8.77-6.97-14.31-15.84-15.42-8.69-1.09-17.49-.89-26.17-.19-9.69.78-16.31,7.2-17.22,15.58-.82,7.54-.85,15.1-.09,22.65.96,9.47,7.39,16.19,16.64,17,4.38.38,8.82.07,13.23.07Z"/><path class="cls-6" d="M588.31,19.37c-1.74,0-2.7,0-3.67,0-14.75,0-29.49-.09-44.24.07-2.94.03-3.72-.84-3.51-3.63.25-3.23.12-6.49.03-9.74-.04-1.55.57-2.03,2.04-2.03,22.24.03,44.49,0,66.73.05,3.25,0,5.84,1.52,7.11,4.61,1.41,3.44.43,6.43-2.03,9.16-15.66,17.39-31.28,34.82-46.9,52.23-.64.71-1.23,1.47-1.88,2.25,1.16.84,2.18.53,3.13.53,14.91.02,29.83.08,44.74-.05,2.5-.02,3.13.75,3,3.09-.18,3.4-.1,6.83-.03,10.24.03,1.48-.46,2.01-2.01,2.01-22.33-.04-44.65-.01-66.98-.05-3.24,0-5.56-1.76-6.81-4.64-1.39-3.22-.59-6.17,1.73-8.75,5.51-6.13,11.02-12.26,16.53-18.4,10.3-11.46,20.59-22.92,30.88-34.38.54-.61,1.04-1.26,2.12-2.59Z"/><path class="cls-6" d="M342.14,72.9v15.12c-.9.05-1.71.13-2.51.13-22.08,0-44.15,0-66.23,0-5.47,0-8.44-2.75-8.46-8.22-.06-24.56-.01-49.12-.07-73.68,0-1.85.77-2.24,2.39-2.21,3.5.07,7,.14,10.49-.02,2.17-.1,2.61.76,2.6,2.75-.06,20.9.03,41.8-.12,62.69-.02,2.97.89,3.52,3.63,3.51,18.33-.12,36.65-.06,54.98-.06.99,0,1.99,0,3.28,0Z"/><path class="cls-6" d="M353.27,48.97c0-11.82-.02-23.64,0-35.46.01-6.86,2.68-9.46,9.6-9.46,21.24,0,42.47.04,63.71-.06,2.54-.01,3.37.69,3.18,3.23-.22,3.06-.2,6.16,0,9.23.14,2.29-.59,2.96-2.9,2.95-18.16-.09-36.31.01-54.47-.11-2.87-.02-3.76.66-3.74,3.68.14,20.81.04,41.62.12,62.43,0,2.15-.47,2.94-2.75,2.8-3.32-.21-6.67-.2-9.99,0-2.22.13-2.84-.59-2.83-2.77.09-12.15.04-24.31.04-36.46Z"/><path class="cls-6" d="M398.62,53.84c-7.16,0-14.33-.05-21.49.04-1.93.02-2.66-.54-2.59-2.54.14-3.57.08-7.16.02-10.74-.03-1.5.29-2.27,2.05-2.26,14.74.06,29.49.06,44.23,0,1.73,0,2.11.72,2.08,2.24-.07,3.66-.09,7.33,0,10.99.05,1.76-.6,2.31-2.32,2.3-7.33-.07-14.66-.03-21.99-.03Z"/><path class="cls-7" d="M56.24,62.07c-4.94,7.76-9.41,14.85-14.13,22.34-5.5,8.63-19.91.78-14.12-7.73,6.92-11.06,13.86-22.1,20.91-33.09,12.18-14,20.28,10.84,26.2,18.11,3.13,4.95,6.08,10.01,9.36,14.88,5.89,8.91-9.19,16.91-14.78,6.86-4.34-7.07-8.83-14.05-13.45-21.37Z"/><path class="cls-2" d="M42.83,37.03c-11.79.25-16.97-17.35-23.38-24.2C13.38,3.69,31.29-4.17,37.22,5.01c4.69,9.04,27.39,27.83,5.61,32.02Z"/><path class="cls-4" d="M90.14,8.95c-3.65,8.38-9.63,15.78-14.53,23.61-5.94,9.68-22.94,2.01-16.78-8.32,4.44-6.79,8.78-13.63,13.27-20.39,5.03-7.36,18.29-3.38,18.04,5.09Z"/><path class="cls-3" d="M21.31,54.32c-4.87-.23-9.8-.1-14.6-.8-10.08-1.67-8.34-17.3,2.15-16.91,8.1-.04,16.21-.03,24.32,0,12.58-.43,12.34,17.35.16,17.47-4.01.09-8.02.02-12.02.02,0,.08,0,.15-.01.23Z"/><path class="cls-1" d="M91,54.33c-4.71-.24-9.47-.17-14.13-.8-10.72-1.86-8.3-17.25,2.02-16.93,8.23,0,16.47-.01,24.7,0,10.33-.13,12.37,14.61,2.1,17-4.75,1.07-9.81.23-14.69.48,0,.08,0,.17-.01.25Z"/></svg>